<?xml version="1.0" standalone="no"?>
<!DOCTYPE svg PUBLIC "-//W3C//DTD SVG 1.1//EN" "http://www.w3.org/Graphics/SVG/1.1/DTD/svg11.dtd" >
<svg xmlns="http://www.w3.org/2000/svg" xmlns:xlink="http://www.w3.org/1999/xlink" version="1.1">
<metadata>
Created by FontForge 20170731 at Thu Oct 17 20:53:08 1996
 By Aleksey,,,
(c) 1996 SoftMaker Software GmbH
</metadata>
<defs>
<font id="Montreal-Serial-Medium-Regular" horiz-adv-x="594" >
  <font-face 
    font-family="Montreal-Serial-Medium"
    font-weight="500"
    font-stretch="normal"
    units-per-em="1000"
    panose-1="0 0 0 0 0 0 0 0 0 0"
    ascent="800"
    descent="-200"
    x-height="486"
    cap-height="721"
    bbox="-117 -209 1040 1011"
    underline-thickness="50"
    underline-position="-175"
    unicode-range="U+0020-2215"
  />
<missing-glyph horiz-adv-x="500" 
d="M31 0v797h438v-797h-438zM438 31v735h-376v-735h376z" />
    <glyph glyph-name=".notdef" horiz-adv-x="500" 
d="M31 0v797h438v-797h-438zM438 31v735h-376v-735h376z" />
    <glyph glyph-name=".null" horiz-adv-x="0" 
 />
    <glyph glyph-name="nonmarkingreturn" horiz-adv-x="290" 
 />
    <glyph glyph-name="space" unicode=" " horiz-adv-x="290" 
 />
    <glyph glyph-name="exclam" unicode="!" horiz-adv-x="246" 
d="M52 55q0 29 20.5 49.5t50.5 20.5t51 -20t21 -50q0 -29 -21 -50t-50 -21q-30 0 -51 20t-21 51zM68 186v535h111v-535h-111z" />
    <glyph glyph-name="quotedbl" unicode="&#x22;" horiz-adv-x="382" 
d="M8 468l54 278l119 -25l-95 -270zM183 468l54 278l119 -25l-94 -270z" />
    <glyph glyph-name="numbersign" unicode="#" horiz-adv-x="195" 
d="M26 56q0 29 20.5 49.5t50.5 20.5t51 -20t21 -50q0 -29 -21 -50t-51 -21q-29 0 -50 20t-21 51z" />
    <glyph glyph-name="dollar" unicode="$" horiz-adv-x="515" 
d="M-2 122l70 75q72 -112 173 -112q54 0 91 34t37 83q0 43 -33 67.5t-109 53.5q-63 24 -85 35.5t-45 31.5q-59 51 -59 135q0 82 52.5 141.5t128.5 59.5v74h74l-1 -72q39 -5 59.5 -11t42.5 -20q47 -27 78 -76l-75 -65q-52 81 -132 81q-46 0 -77 -28t-31 -71q0 -37 25 -60
q13 -13 34 -23.5t72 -30.5t78.5 -34t50.5 -32q33 -24 51 -62t18 -83q0 -88 -54 -150t-139 -72v-80h-74v77q-43 0 -70.5 8.5t-63.5 32.5q-28 19 -47 39t-40 54z" />
    <glyph glyph-name="percent" unicode="%" horiz-adv-x="875" 
d="M31 547q0 79 55 134t133 55t134 -55t56 -133q0 -79 -55.5 -133.5t-134.5 -54.5q-77 0 -132.5 54.5t-55.5 132.5zM190 14l402 722l84 -46l-404 -722zM467 173q0 79 54 134t134 55q78 0 133 -55t55 -134q0 -78 -55.5 -132.5t-133.5 -54.5t-132.5 54.5t-54.5 132.5zM219 649
q-39 0 -67.5 -29.5t-28.5 -71.5t28 -71t68 -29t68.5 29.5t28.5 70.5q0 42 -28.5 71.5t-68.5 29.5zM655 275q-40 0 -68 -30t-28 -72t27.5 -71.5t67.5 -29.5t68.5 29.5t28.5 71.5t-28 72t-68 30z" />
    <glyph glyph-name="ampersand" unicode="&#x26;" horiz-adv-x="663" 
d="M192 427q-73 82 -73 157q0 64 49 107t124 43q77 0 127 -42t50 -107q0 -93 -125 -179l152 -180l90 86l71 -72l-94 -89l91 -101l-78 -69l-96 109q-63 -55 -116 -80t-106 -25q-94 0 -160 64t-66 156q0 132 160 222zM227 584q0 -43 56 -104q44 32 62 55t18 48
q0 27 -19.5 44.5t-49.5 17.5q-29 0 -48 -17t-19 -44zM413 166l-159 188q-61 -40 -87 -73t-26 -69q0 -50 37 -88t87 -38q30 0 63 18t85 62z" />
    <glyph glyph-name="quotesingle" unicode="'" horiz-adv-x="206" 
d="M8 464l54 278l119 -25l-95 -269z" />
    <glyph glyph-name="parenleft" unicode="(" horiz-adv-x="234" 
d="M154 855l76 -34q-15 -39 -25.5 -70t-17.5 -55q-21 -76 -35 -170.5t-14 -165.5q0 -68 14 -163t35 -172q13 -47 21 -70q3 -8 22 -56l-76 -34q-21 44 -32 69q-5 11 -21 57q-32 89 -48.5 182t-16.5 187q0 189 65 370q13 36 22.5 59.5t30.5 65.5z" />
    <glyph glyph-name="parenright" unicode=")" horiz-adv-x="235" 
d="M3 -98q18 48 28.5 78t19.5 63q20 74 32 161.5t12 155.5q0 67 -12 153.5t-32 163.5q-15 55 -48 141l76 35q20 -42 33 -73.5t23 -59.5q30 -89 47 -182.5t17 -176.5q0 -84 -17 -181t-47 -182q-12 -34 -21.5 -57t-34.5 -74z" />
    <glyph glyph-name="asterisk" unicode="*" horiz-adv-x="431" 
d="M26 549l23 102l127 -48l-14 138h104l-15 -139l130 49l24 -103l-135 -16l81 -107l-90 -52l-49 115l-55 -112l-91 58l90 100z" />
    <glyph glyph-name="plus" unicode="+" 
d="M53 314v94h189v189h109v-189h190v-94h-190v-190h-109v190h-189z" />
    <glyph glyph-name="comma" unicode="," horiz-adv-x="205" 
d="M8 -135l54 279l117 -25l-93 -270z" />
    <glyph glyph-name="hyphen" unicode="-" horiz-adv-x="309" 
d="M34 189v108h242v-108h-242z" />
    <glyph glyph-name="period" unicode="." horiz-adv-x="195" 
d="M26 56q0 29 20.5 49.5t50.5 20.5t51 -20t21 -50q0 -29 -21 -50t-51 -21q-29 0 -50 20t-21 51z" />
    <glyph glyph-name="slash" unicode="/" horiz-adv-x="257" 
d="M3 0l161 741l90 -20l-160 -740z" />
    <glyph glyph-name="zero" unicode="0" 
d="M29 359q0 167 73.5 270.5t193.5 103.5t194 -103t74 -271t-74 -271t-193 -103q-120 0 -194 103t-74 271zM297 625q-71 0 -112 -71.5t-41 -194.5q0 -122 41 -194t112 -72q70 0 112 72t42 194q0 123 -41.5 194.5t-112.5 71.5z" />
    <glyph glyph-name="one" unicode="1" 
d="M137 0v94h107v533h-106v94h218v-627h106v-94h-325z" />
    <glyph glyph-name="two" unicode="2" 
d="M52 483l-1 21q0 102 68.5 166.5t177.5 64.5q108 0 178 -63t70 -162q0 -64 -36 -122.5t-123 -134.5l-181 -159l350 2v-96h-502v86l248 224q12 10 35 34q11 12 23 24q71 77 71 141q0 55 -38 90t-98 35q-57 0 -93 -35t-36 -93l1 -23h-114z" />
    <glyph glyph-name="three" unicode="3" 
d="M45 214h115q0 -61 35.5 -96.5t96.5 -35.5t99.5 36.5t38.5 92.5q0 54 -37.5 87.5t-98.5 33.5l-25 -2v95l24 -2q50 0 83 31t33 79t-33 78t-84 30q-52 0 -84.5 -29.5t-32.5 -78.5h-109q9 94 70 148t162 54q96 0 159 -55t63 -139q0 -110 -104 -156q36 -11 52 -23
q77 -51 77 -151q0 -97 -72 -162t-179 -65q-114 0 -181.5 61.5t-67.5 168.5z" />
    <glyph glyph-name="four" unicode="4" 
d="M31 187l360 534h81v-509h85v-88h-85v-124h-111v124h-303zM336 470l-174 -258h199v253q0 16 1.5 31t11.5 45l-22 -44z" />
    <glyph glyph-name="five" unicode="5" 
d="M24 114l62 75q58 -106 170 -106q73 0 121 47t48 119q0 67 -48 110t-123 43q-43 0 -92 -19l-41 20l84 318h328v-94h-248l-42 -145q19 5 29 6t29 1q103 0 170.5 -68.5t67.5 -171.5q0 -114 -78 -189t-198 -75q-164 0 -239 129z" />
    <glyph glyph-name="six" unicode="6" 
d="M253 446q43 13 76 13q97 0 161.5 -64.5t64.5 -162.5q0 -106 -75 -177t-186 -71t-183 68t-72 173q0 86 56 167l64 89l188 258l84 -59zM149 226v-7q0 -58 42 -97t104 -39q64 0 106.5 41.5t42.5 105.5q0 62 -41.5 102.5t-106.5 40.5q-63 0 -105 -42t-42 -105z" />
    <glyph glyph-name="seven" unicode="7" 
d="M51 31l366 596h-362v94h488v-82l-396 -656z" />
    <glyph glyph-name="eight" unicode="8" 
d="M176 373q-105 40 -105 160q0 89 63 145t162 56q100 0 163 -56t63 -145q0 -120 -105 -160q22 -8 31.5 -13t19.5 -13q35 -25 54 -65t19 -85q0 -92 -68.5 -152.5t-175.5 -60.5q-106 0 -175 60t-69 153q0 94 72 150q16 13 51 26zM183 533v-7q0 -47 32 -78t81 -31q51 0 83 32
t32 84q0 48 -32 78t-83 30q-50 0 -81.5 -30.5t-31.5 -77.5zM296 325q-53 0 -89 -35t-36 -88q0 -50 36 -85t89 -35q55 0 91 34t36 86q0 53 -36 88t-91 35z" />
    <glyph glyph-name="nine" unicode="9" 
d="M343 276q-23 -9 -40.5 -13t-35.5 -4q-96 0 -162 66t-66 161q0 108 74.5 179.5t187.5 71.5q109 0 181.5 -67.5t72.5 -171.5q0 -84 -57 -169q-19 -31 -55 -78l-197 -270l-84 59zM299 637q-64 0 -107 -42t-43 -104t42 -103t106 -41q63 0 105 42t42 105q0 61 -41 102t-104 41
z" />
    <glyph glyph-name="colon" unicode=":" horiz-adv-x="246" 
d="M52 56q0 29 20.5 49.5t50.5 20.5t51 -20t21 -50q0 -29 -21 -50t-51 -21q-29 0 -50 20t-21 51zM53 396q0 29 20 50t51 21q30 0 50 -20t20 -51q0 -29 -21 -50t-50 -21t-49.5 20.5t-20.5 50.5z" />
    <glyph glyph-name="semicolon" unicode=";" horiz-adv-x="226" 
d="M16 -135l54 279l118 -25l-93 -270zM39 396q0 29 21 50t50 21q30 0 51 -20t21 -51q0 -30 -21 -51t-52 -21q-30 0 -50 21t-20 51z" />
    <glyph glyph-name="less" unicode="&#x3c;" horiz-adv-x="398" 
d="M34 244l269 238l61 -67l-198 -169l198 -175l-61 -69z" />
    <glyph glyph-name="equal" unicode="=" 
d="M56 385v93h480v-93h-480zM56 243v93h480v-93h-480z" />
    <glyph glyph-name="greater" unicode="&#x3e;" horiz-adv-x="399" 
d="M34 72l198 172l-198 174l61 67l270 -244l-271 -238z" />
    <glyph glyph-name="question" unicode="?" horiz-adv-x="509" 
d="M146 56q0 30 21 51t50 21q30 0 51 -21t21 -51t-21.5 -50.5t-50.5 -20.5q-30 0 -50.5 20.5t-20.5 50.5zM4 541q23 94 84.5 144t154.5 50q106 0 174.5 -65.5t68.5 -165.5q0 -66 -32 -116t-93 -80l-56 -27q-24 -10 -28 -22l-3 -10l-3 -17v-45h-108v68q0 39 7.5 54t34.5 27
l19 8q75 35 102 54q53 37 53 109q0 60 -37 98t-97 38q-56 0 -91.5 -32.5t-42.5 -90.5z" />
    <glyph glyph-name="at" unicode="@" horiz-adv-x="782" 
d="M456 229q-6 -18 -20 -34q-36 -43 -83 -43q-21 0 -48 11q-78 34 -78 178l4 35q7 49 23 85.5t43 69.5q24 28 53.5 42.5t57.5 14.5q60 0 86 -51l5 -10l9 54h49l-37 -213l-13 -85q-3 -20 -3 -34t1 -20q3 -6 3 -9q10 -28 41 -28q9 0 14 2q14 5 25.5 14t29.5 31q19 20 33 53.5
t21 77.5q2 12 3 27t1 29q0 114 -70.5 185.5t-181.5 71.5q-22 0 -46 -3q-110 -16 -183.5 -106.5t-73.5 -215.5v-23q2 -11 2 -15q12 -129 95 -208t195 -79q59 0 116 24q73 30 130 92l25 30l18 -43l-25 -29q-115 -121 -268 -121q-154 0 -252.5 112.5t-98.5 285.5q0 77 31 140.5
t90 116.5q88 79 197 91q24 3 47 3q133 0 220 -87t87 -219q0 -34 -6 -69q-11 -61 -37.5 -109t-63.5 -76q-21 -16 -41.5 -23t-41.5 -7q-29 0 -51.5 15t-29.5 40q-1 4 -2 10.5t-1 18.5zM286 291q0 -18 3.5 -33.5t9.5 -27.5q17 -36 59 -36q26 0 45 19q14 14 22.5 30.5t22.5 55.5
q9 25 19 73l1 10l7 42q3 23 3 37q0 15 -1 21q-4 28 -22.5 44.5t-43.5 16.5q-15 0 -26 -5q-27 -11 -44.5 -34.5t-35.5 -76.5q-7 -21 -12 -47.5t-6 -44.5t-1 -44z" />
    <glyph glyph-name="A" unicode="A" horiz-adv-x="625" 
d="M-29 0l287 721h107l288 -721h-122l-69 179h-300l-69 -179h-122zM292 524l-94 -253h229l-95 253q-3 10 -6.5 21t-5.5 18.5t-4 20.5t-4 35q0 -21 -3 -35t-5 -23z" />
    <glyph glyph-name="B" unicode="B" horiz-adv-x="556" 
d="M52 0v721h183q20 0 41 -0.5t46 -4.5q68 -11 111 -61.5t43 -118.5q0 -104 -90 -147q71 -13 110 -60.5t39 -120.5q0 -97 -71 -157q-31 -27 -69 -39t-94 -12h-249zM168 625v-204h75q58 0 89.5 26.5t31.5 75.5q0 102 -130 102h-66zM168 325v-229h108q69 0 107 30t38 85
q0 43 -25 72.5t-70 37.5q-21 4 -59 4h-99z" />
    <glyph glyph-name="C" unicode="C" horiz-adv-x="652" 
d="M637 655l-61 -89l-32 23q-59 36 -134 36q-112 0 -187.5 -76.5t-75.5 -189.5q0 -115 74.5 -191.5t187.5 -76.5q53 0 103 21q29 12 64 39l60 -88l-40 -27q-85 -51 -199 -51q-158 0 -262.5 105.5t-104.5 264.5q0 162 106 270t267 108q71 0 131 -22q26 -9 47 -20t56 -36z" />
    <glyph glyph-name="D" unicode="D" horiz-adv-x="652" 
d="M52 0v721h191q71 0 127 -14q114 -30 183.5 -124.5t69.5 -220.5q0 -160 -99 -261t-258 -101h-214zM168 618v-516h100q105 0 173.5 73.5t68.5 185.5q0 111 -72 184t-182 73h-88z" />
    <glyph glyph-name="E" unicode="E" horiz-adv-x="478" 
d="M52 0v721h386v-96h-270v-189h232v-95h-232v-245h282v-96h-398z" />
    <glyph glyph-name="F" unicode="F" horiz-adv-x="409" 
d="M52 0v721h360v-96h-244v-189h211v-97h-211v-339h-116z" />
    <glyph glyph-name="G" unicode="G" horiz-adv-x="781" 
d="M715 576l-94 -67q-18 24 -27 34.5t-23 22.5q-74 65 -167 65q-107 0 -182 -80t-75 -195q0 -117 73.5 -193.5t185.5 -76.5q93 0 152 52t72 143h-236v101h361l1 -45q0 -39 -11 -86q-31 -126 -121 -196t-222 -70q-162 0 -267 105t-105 266q0 163 107.5 270.5t271.5 107.5
q132 0 233 -81q18 -16 35 -33.5t38 -43.5z" />
    <glyph glyph-name="H" unicode="H" horiz-adv-x="657" 
d="M52 0v721h116v-278h322v278h114v-721h-114v343h-322v-343h-116z" />
    <glyph glyph-name="I" unicode="I" horiz-adv-x="219" 
d="M52 0v721h116v-721h-116z" />
    <glyph glyph-name="J" unicode="J" horiz-adv-x="360" 
d="M-26 40l58 86q39 -36 79 -36q54 0 72 48q5 16 7 39t2 63v481h116v-493q0 -63 -5 -94.5t-21 -61.5q-20 -40 -63 -63t-97 -23q-42 0 -76 12t-72 42z" />
    <glyph glyph-name="K" unicode="K" horiz-adv-x="551" 
d="M52 0v721h116v-333l256 333h140l-269 -347l297 -374h-140l-284 361v-361h-116z" />
    <glyph glyph-name="L" unicode="L" horiz-adv-x="396" 
d="M52 0v721h116v-619h228v-102h-344z" />
    <glyph glyph-name="M" unicode="M" horiz-adv-x="857" 
d="M14 0l100 721h99l195 -481q7 -20 12.5 -45.5t8.5 -56.5q8 68 22 102l193 481h100l99 -721h-115l-53 432q-3 17 -4 44.5t-1 32.5v29q-7 -56 -24 -97l-179 -441h-77l-178 441q-17 40 -27 97l2 -58l-2 -48l-55 -432h-116z" />
    <glyph glyph-name="N" unicode="N" horiz-adv-x="745" 
d="M52 0v721h105l387 -484q24 -30 50 -94q-7 35 -12 67.5t-5 43.5v467h116v-721h-102l-392 488q-25 30 -49 89l5 -23l4 -25q9 -50 9 -57v-472h-116z" />
    <glyph glyph-name="O" unicode="O" horiz-adv-x="813" 
d="M30 360q0 160 107 268t269 108q161 0 269 -108t108 -268t-108 -268t-269 -108t-268.5 107.5t-107.5 268.5zM406 628q-110 0 -185.5 -77.5t-75.5 -190.5q0 -112 76 -190t185 -78q110 0 186 77t76 191q0 112 -76 190t-186 78z" />
    <glyph glyph-name="P" unicode="P" horiz-adv-x="490" 
d="M52 0v721h190q56 0 86 -6q72 -15 113 -69t41 -135q0 -97 -57.5 -152.5t-157.5 -55.5h-99v-303h-116zM168 625v-226h68q62 0 96 30t34 86q0 110 -128 110h-70z" />
    <glyph glyph-name="Q" unicode="Q" horiz-adv-x="811" 
d="M678 93l104 -91l-80 -76l-102 109l-35 -18q-70 -32 -160 -32q-161 0 -268 107t-107 268t107 268t268 107q162 0 269.5 -106.5t107.5 -267.5q0 -76 -28 -148q-21 -54 -76 -120zM405 628q-109 0 -184 -78t-75 -190t75 -190t183 -78q113 0 187 76t74 193q0 112 -75.5 189.5
t-184.5 77.5z" />
    <glyph glyph-name="R" unicode="R" horiz-adv-x="516" 
d="M52 0v721h191q26 0 50 -2t42 -5q69 -16 110 -70.5t41 -132.5q0 -161 -166 -196l212 -315h-138l-226 351v-351h-116zM168 625v-244h61q66 0 103.5 33.5t37.5 92.5q0 118 -136 118h-66z" />
    <glyph glyph-name="S" unicode="S" horiz-adv-x="515" 
d="M-2 122l70 75q72 -112 173 -112q54 0 91 34t37 83q0 43 -33 67.5t-109 53.5q-63 24 -85 35.5t-45 31.5q-59 51 -59 135q0 91 63.5 149.5t161.5 58.5q135 0 209 -112l-75 -65q-52 81 -132 81q-46 0 -77 -28t-31 -71q0 -37 25 -60q13 -13 34 -23.5t72 -30.5t78.5 -34
t50.5 -32q69 -52 69 -144q0 -101 -69 -165t-178 -64q-157 0 -241 137z" />
    <glyph glyph-name="T" unicode="T" horiz-adv-x="432" 
d="M-16 615v106h465v-106h-174v-615h-116v615h-175z" />
    <glyph glyph-name="U" unicode="U" horiz-adv-x="645" 
d="M592 721v-439q0 -76 -7 -111q-19 -87 -89 -137t-173 -50q-130 0 -205 78q-38 39 -52 85.5t-14 134.5v439h116v-428v-43.5t4 -40.5q8 -55 48.5 -86.5t101.5 -31.5q78 0 120 48q22 25 29 54.5t7 99.5v428h114z" />
    <glyph glyph-name="V" unicode="V" horiz-adv-x="564" 
d="M-29 721h124l167 -481q14 -44 20 -109q6 71 21 109l166 481h125l-265 -721h-93z" />
    <glyph glyph-name="W" unicode="W" horiz-adv-x="948" 
d="M-22 721h119l146 -477q7 -20 11 -45.5t7 -65.5q4 41 8 68.5t9 41.5l147 478h98l147 -478q4 -11 9.5 -44.5t8.5 -65.5q0 34 4.5 61t12.5 50l146 477h119l-234 -721h-99l-142 463q-7 23 -13.5 55.5t-6.5 68.5q-10 -85 -22 -124l-142 -463h-99z" />
    <glyph glyph-name="X" unicode="X" horiz-adv-x="609" 
d="M-11 0l239 387l-203 334h134l99 -171q6 -11 13 -22q4 -8 10 -21q12 -27 24 -81q5 29 10 45.5t13 35.5l22 43l100 171h134l-202 -334l237 -387h-134l-142 245l-21 43q-5 13 -9.5 31.5t-7.5 38.5q-5 -24 -9.5 -41t-9.5 -29q-9 -23 -20 -43l-142 -245h-135z" />
    <glyph glyph-name="Y" unicode="Y" horiz-adv-x="497" 
d="M-32 721h133l125 -243q9 -17 14.5 -35t9.5 -45q2 22 5 39.5t16 40.5l127 243h131l-223 -402v-319h-115v319z" />
    <glyph glyph-name="Z" unicode="Z" horiz-adv-x="544" 
d="M10 0v64l327 514q11 17 24 31t30 28q-47 -18 -81 -18h-267v102h473v-63l-325 -512q-20 -33 -57 -63q47 18 79 18l318 1v-102h-521z" />
    <glyph glyph-name="bracketleft" unicode="[" horiz-adv-x="241" 
d="M54 -110v941h180v-95h-70v-752h70v-94h-180z" />
    <glyph glyph-name="backslash" unicode="\" horiz-adv-x="302" 
d="M43 720h90l126 -720h-90z" />
    <glyph glyph-name="bracketright" unicode="]" horiz-adv-x="241" 
d="M8 -110v94h69v752h-69v95h179v-941h-179z" />
    <glyph glyph-name="asciicircum" unicode="^" horiz-adv-x="357" 
d="M1 601l178 118l177 -119l-41 -69l-136 82l-139 -78z" />
    <glyph glyph-name="underscore" unicode="_" horiz-adv-x="446" 
d="M43 -32v32h360v-32h-360z" />
    <glyph glyph-name="grave" unicode="`" horiz-adv-x="262" 
d="M1 680l88 57l115 -162l-68 -45z" />
    <glyph glyph-name="a" unicode="a" horiz-adv-x="588" 
d="M424 414v72h111v-486h-111v67q-54 -82 -160 -82q-101 0 -167.5 72.5t-66.5 184.5q0 109 67 183t165 74q83 0 138 -55q12 -10 24 -30zM284 403q-60 0 -101 -46t-41 -116q0 -69 41 -115t103 -46q63 0 103.5 46.5t40.5 116.5q0 69 -41.5 114.5t-104.5 45.5z" />
    <glyph glyph-name="b" unicode="b" horiz-adv-x="588" 
d="M52 0v721h111v-304q56 82 159 82t170 -72t67 -184q0 -110 -67 -184t-167 -74q-81 0 -135 51q-7 7 -12 13t-15 21v-70h-111zM299 403q-63 0 -101 -44t-38 -118q0 -70 40 -113t105 -43q61 0 100 44t39 114t-40.5 115t-104.5 45z" />
    <glyph glyph-name="c" unicode="c" horiz-adv-x="450" 
d="M439 465l-35 -94q-56 28 -103 28q-68 0 -112.5 -44.5t-44.5 -114.5q0 -69 43.5 -112.5t111.5 -43.5q29 0 51 7t53 26l39 -87l-33 -18q-57 -27 -126 -27q-110 0 -181.5 71.5t-71.5 182.5q0 112 75 186t189 74q42 0 73 -7t72 -27z" />
    <glyph glyph-name="d" unicode="d" horiz-adv-x="590" 
d="M426 417v304h111v-721h-111v72q-47 -87 -163 -87q-103 0 -168 71t-65 184q0 112 67.5 185.5t170.5 73.5t158 -82zM289 402q-63 0 -103.5 -45.5t-40.5 -116.5q0 -69 40.5 -113.5t104.5 -44.5t103 44.5t39 117.5q0 69 -40 113.5t-103 44.5z" />
    <glyph glyph-name="e" unicode="e" horiz-adv-x="555" 
d="M526 202h-383q10 -60 47.5 -95t93.5 -35q41 0 78.5 23.5t63.5 65.5l88 -55q-44 -63 -99 -92.5t-131 -29.5q-113 0 -184 70t-71 184t71.5 187.5t181.5 73.5q109 0 177.5 -72.5t68.5 -187.5zM281 413q-54 0 -90.5 -34t-47.5 -96h268q0 59 -36.5 94.5t-93.5 35.5z" />
    <glyph glyph-name="f" unicode="f" horiz-adv-x="262" 
d="M-1 392v94h71v77q0 79 45 125t121 46q45 0 93 -16l-21 -88q-13 7 -23 9t-24 2q-43 0 -64 -28q-15 -21 -15 -68v-59h126v-94h-126v-392h-112v392h-71z" />
    <glyph glyph-name="g" unicode="g" horiz-adv-x="587" 
d="M423 416v70h112v-463q0 -110 -67 -168t-196 -58q-48 0 -81 7t-67 27q-47 29 -83 81l79 65q58 -87 161 -87q62 0 102 33t40 87v52q-53 -76 -155 -76q-104 0 -171 71.5t-67 182.5q0 113 66 187t167 74q45 0 81 -14.5t60 -42.5q6 -5 8.5 -9t10.5 -19zM285 409
q-62 0 -102 -47t-40 -118q0 -72 41 -118t105 -46q63 0 103 45t40 117q0 73 -41 120t-106 47z" />
    <glyph glyph-name="h" unicode="h" horiz-adv-x="535" 
d="M52 0v721h111v-298q59 76 152 76q86 0 134 -59q19 -23 26 -53t7 -83v-304h-113v281q0 10 -0.5 22t-3.5 27q-6 33 -30 52t-60 19q-54 0 -87 -44q-14 -19 -19.5 -41t-5.5 -60v-256h-111z" />
    <glyph glyph-name="i" unicode="i" horiz-adv-x="216" 
d="M54 0v486h111v-486h-111zM39 626q0 28 20 47t50 19t51 -19t21 -47t-21 -47t-51 -19t-50 19t-20 47z" />
    <glyph glyph-name="j" unicode="j" horiz-adv-x="218" 
d="M-85 -183l21 92q31 -11 50 -11q22 0 38.5 10.5t24.5 28.5q5 16 6 36t1 48v465h112v-487q0 -48 -5 -75.5t-18 -53.5q-38 -69 -132 -69q-49 0 -98 16zM41 627q0 27 20.5 46.5t49.5 19.5q30 0 51.5 -19.5t21.5 -46.5q0 -28 -21.5 -47.5t-51.5 -19.5t-50 19t-20 48z" />
    <glyph glyph-name="k" unicode="k" horiz-adv-x="470" 
d="M57 0v721h112v-452l174 217h139l-186 -229l211 -257h-143l-195 253v-253h-112z" />
    <glyph glyph-name="l" unicode="l" horiz-adv-x="216" 
d="M52 0v721h112v-721h-112z" />
    <glyph glyph-name="m" unicode="m" horiz-adv-x="798" 
d="M52 0v486h111v-72q54 83 145 83q95 0 135 -78q52 79 147 79q84 0 127 -57q19 -23 24 -46.5t5 -84.5v-310h-112v285v21q0 11 -3 33t-24 40t-53 18q-47 0 -73 -32t-26 -90v-275h-111v288l-2 42q-4 30 -26 49t-52 19q-47 0 -74 -34t-27 -94v-270h-111z" />
    <glyph glyph-name="n" unicode="n" horiz-adv-x="535" 
d="M52 0v486h111v-75q55 90 156 90q37 0 70 -14t55.5 -39t30.5 -54.5t8 -85.5v-308h-111v280q0 32 -4 57.5t-30.5 46t-61.5 20.5q-53 0 -83 -37t-30 -102v-265h-111z" />
    <glyph glyph-name="o" unicode="o" horiz-adv-x="586" 
d="M30 242q0 111 75 184t188 73t188 -73t75 -184t-74 -184t-189 -73q-113 0 -188 73t-75 184zM293 403q-67 0 -111 -46t-44 -115t44.5 -114.5t110.5 -45.5q67 0 111 45t44 115q0 69 -44 115t-111 46z" />
    <glyph glyph-name="p" unicode="p" horiz-adv-x="588" 
d="M52 -188v674h111v-81q52 94 166 94q101 0 165 -71t64 -184t-65 -186t-167 -73q-84 0 -137 54q-6 6 -13 16t-13 21v-263zM306 402q-66 0 -106 -44t-40 -115q0 -72 40.5 -117.5t105.5 -45.5q62 0 102 45t40 116t-40 116t-102 45z" />
    <glyph glyph-name="q" unicode="q" horiz-adv-x="585" 
d="M422 419v67h111v-673l-111 -1v256q-57 -83 -163 -83q-101 0 -165 71t-64 184t65 186t167 73q53 0 90 -18.5t70 -61.5zM282 403q-61 0 -101 -46t-40 -117q0 -69 41 -115t103 -46q63 0 102.5 45.5t39.5 117.5q0 71 -40 116t-105 45z" />
    <glyph glyph-name="r" unicode="r" horiz-adv-x="319" 
d="M52 0v486h111v-88q17 49 52.5 74.5t86.5 25.5q14 0 24 -1t25 -5l-25 -114q-26 10 -47 10q-53 0 -90 -42q-15 -19 -20.5 -39t-5.5 -55v-252h-111z" />
    <glyph glyph-name="s" unicode="s" horiz-adv-x="392" 
d="M2 89l73 58q40 -73 107 -73q32 0 53 18t21 45q0 23 -17 40q-12 11 -68 34q-33 12 -51 21.5t-37 21.5q-49 35 -49 98q0 64 47.5 105.5t119.5 41.5q109 0 160 -85l-69 -58q-37 55 -83 55q-26 0 -44.5 -15.5t-18.5 -38.5q0 -31 49 -50l42 -15l41 -17q92 -42 92 -128
q0 -71 -52 -117t-134 -46q-122 0 -182 105z" />
    <glyph glyph-name="t" unicode="t" horiz-adv-x="290" 
d="M-9 392v94h72v128h111v-128h128v-94h-128v-216l1 -41q0 -54 63 -54q16 0 25.5 2t28.5 10l20 -90q-56 -16 -103 -16q-81 0 -121 55q-17 22 -21 42t-4 78v230h-72z" />
    <glyph glyph-name="u" unicode="u" horiz-adv-x="539" 
d="M488 486v-286q0 -45 -9 -81q-19 -59 -76.5 -96t-132.5 -37q-91 0 -154 51q-34 28 -49 65.5t-15 97.5v286h111v-275q0 -31 5 -49q7 -33 34 -52t68 -19q52 0 80 30q16 16 21 34t5 56v275h112z" />
    <glyph glyph-name="v" unicode="v" horiz-adv-x="442" 
d="M-29 486h119l108 -268q8 -20 13.5 -41t9.5 -51q7 55 23 92l108 268h118l-208 -486h-83z" />
    <glyph glyph-name="w" unicode="w" horiz-adv-x="725" 
d="M-22 486h119l92 -260q7 -18 11.5 -38.5t8.5 -50.5q3 27 6.5 42.5t14.5 47.5l91 259h83l91 -259q8 -23 13 -44.5t8 -45.5q6 52 19 89l93 260h119l-186 -486h-83l-91 254l-15 50q-1 4 -4.5 21t-5.5 30l-8 -51l-16 -50l-90 -254h-84z" />
    <glyph glyph-name="x" unicode="x" horiz-adv-x="470" 
d="M-26 0l197 256l-179 230h139l77 -109q11 -15 17 -29t10 -32q5 22 10 33t18 28l76 109h139l-179 -230l197 -256h-136l-93 128q-21 29 -32 70q-6 -21 -13 -37t-20 -33l-92 -128h-136z" />
    <glyph glyph-name="y" unicode="y" horiz-adv-x="437" 
d="M-29 486h120l107 -278q10 -24 14 -40.5t7 -47.5l7 35q6 26 16 53l107 278h122l-216 -523l-10 -21q-19 -45 -27.5 -61t-21.5 -31q-20 -23 -53.5 -36t-73.5 -13q-22 0 -37.5 2t-37.5 10l21 97q25 -8 47 -8q46 0 68 37q7 14 10 22q13 28 22 53z" />
    <glyph glyph-name="z" unicode="z" horiz-adv-x="462" 
d="M4 0v58l259 302q23 28 61 52q-23 -7 -48 -13.5t-32 -6.5h-208v94h418v-56l-256 -300l-25 -26q-11 -11 -17 -15.5t-21 -14.5q51 20 87 20h222v-94h-440z" />
    <glyph glyph-name="braceleft" unicode="{" horiz-adv-x="325" 
d="M43 360q28 0 46 20t18 52v326q0 36 21.5 56.5t62.5 20.5h91v-53h-12q-33 0 -45 -12t-12 -45v-282q0 -36 -27 -61q-21 -19 -48 -22q14 -2 26 -7q49 -24 49 -76v-282q0 -34 11.5 -45.5t45.5 -11.5h12v-53h-91q-40 0 -62 20t-22 57v326q0 32 -18 52t-46 20z" />
    <glyph glyph-name="bar" unicode="|" horiz-adv-x="176" 
d="M43 0v720h90v-720h-90z" />
    <glyph glyph-name="braceright" unicode="}" horiz-adv-x="325" 
d="M43 -115v53h12q34 0 46 12t12 45v282q0 53 49 76q11 5 26 7q-15 2 -26 7q-49 23 -49 76v282q0 34 -11.5 45.5t-46.5 11.5h-12v53h91q41 0 63 -20t22 -57v-326q0 -31 17.5 -51.5t45.5 -20.5q-27 0 -45 -20t-18 -52v-326q0 -36 -22.5 -56.5t-62.5 -20.5h-91z" />
    <glyph glyph-name="asciitilde" unicode="~" horiz-adv-x="342" 
d="M1 769v83q41 14 77 14q17 0 26 -1t29 -7l46 -9q43 -10 75 -10q44 0 87 23v-85q-23 -8 -42 -11.5t-42 -3.5q-33 0 -83 10l-49 10q-9 2 -21 3t-22 1q-24 0 -40 -3t-41 -14z" />
    <glyph glyph-name="nonbreakingspace" unicode="&#xa0;" horiz-adv-x="500" 
 />
    <glyph glyph-name="exclamdown" unicode="&#xa1;" horiz-adv-x="246" 
d="M52 663q0 29 20.5 49.5t50.5 20.5t51 -20t21 -50t-21 -51t-51 -21q-29 0 -50 21t-21 51zM69 -1v535h106v-535h-106z" />
    <glyph glyph-name="cent" unicode="&#xa2;" horiz-adv-x="450" 
d="M253 491v77h70v-74q24 0 31 -1t28 -5q13 -4 26.5 -9t30.5 -14l-35 -94q-53 27 -103 27q-69 0 -113 -44t-44 -114q0 -69 43.5 -112.5t111.5 -43.5q52 0 104 33l38 -87q-22 -13 -35 -20t-28 -10.5t-26.5 -7t-28.5 -3.5v-85h-71v85q-97 0 -159.5 72t-62.5 178q0 110 74 186
q37 37 84 55q9 3 23.5 7t41.5 4z" />
    <glyph glyph-name="sterling" unicode="&#xa3;" horiz-adv-x="563" 
d="M29 0v104l81 154h-80v92h129l100 180q38 68 66.5 102.5t66 57.5t69.5 34t73 11v-104q-60 -7 -96.5 -35.5t-77.5 -99.5l-83 -146h150v-92h-198l-81 -154h384v-104h-503z" />
    <glyph glyph-name="currency" unicode="&#xa4;" horiz-adv-x="494" 
d="M43 212l60 60q-13 17 -21 42.5t-8 48.5q0 48 29 88l-59 57q14 20 33 37l62 -60q41 30 90 30q50 0 90 -29l60 60l10 -8q14 -12 25 -30l-59 -56q29 -41 29 -91t-30 -91l60 -60l-8 -8l-8 -9l-20 -18l-59 60q-41 -30 -90 -30q-50 0 -90 31l-62 -60l-9 8l-8 9l-9 9zM126 360
q0 -41 30 -72t73 -31t73 30t30 73t-30 73t-73 30t-73 -30t-30 -73z" />
    <glyph glyph-name="yen" unicode="&#xa5;" horiz-adv-x="628" 
d="M34 721h131l127 -243q8 -16 13.5 -35.5t9.5 -44.5q4 47 22 80l126 243h132l-163 -299h136v-87h-184l-13 -16v-21h195v-87h-193l-2 -211h-115v210h-189v89h189v20l-5 16h-182v87h133z" />
    <glyph glyph-name="section" unicode="&#xa7;" horiz-adv-x="587" 
d="M137 449q-49 50 -49 115q0 75 60.5 122.5t154.5 47.5q48 0 90.5 -14t71.5 -41q53 -48 61 -131l-109 -3q-19 91 -121 91q-38 0 -62.5 -18t-24.5 -46q0 -23 18.5 -46.5t51.5 -40.5l167 -86q111 -58 111 -163q0 -54 -23.5 -92t-77.5 -72q42 -41 42 -99q0 -77 -59.5 -126
t-153.5 -49q-103 0 -163 49t-60 136l113 2q0 -41 32.5 -65.5t85.5 -24.5q37 0 61 17t24 43q0 20 -12 40q-7 14 -15.5 21.5t-30.5 19.5l-177 96q-111 60 -111 159q0 100 105 158zM400 303l-177 92q-82 -41 -82 -92q0 -25 16 -47t46 -38l171 -88q77 39 77 98q0 46 -51 75z" />
    <glyph glyph-name="dieresis" unicode="&#xa8;" horiz-adv-x="298" 
d="M-26 600q0 28 19 47t49 19q28 0 47 -19t19 -47q0 -29 -19.5 -48.5t-47.5 -19.5t-47.5 19.5t-19.5 48.5zM190 600q0 28 19 47t47 19t48 -19t20 -47q0 -29 -19.5 -48.5t-48.5 -19.5q-28 0 -47 19t-19 49z" />
    <glyph glyph-name="copyright" unicode="&#xa9;" horiz-adv-x="862" 
d="M58 361q0 74 28 142t81.5 121.5t121.5 81t142 27.5q73 0 141 -27t123 -82q109 -109 109 -263q0 -155 -109 -264t-264 -109t-264 109t-109 264zM112 361q0 -65 24 -124.5t69.5 -105.5t104.5 -70.5t121 -24.5t120.5 24t104 70t70 107t24.5 123q0 64 -23.5 123t-69 105.5
t-105 71t-121.5 24.5q-63 0 -120.5 -23t-104.5 -71q-94 -96 -94 -229zM602 541l-33 -47q-37 31 -82 40q-9 1 -17 2.5t-19 1.5q-66 0 -115.5 -42t-59.5 -108q-2 -8 -2 -17.5v-14.5q0 -67 40.5 -116.5t105.5 -60.5q7 -1 14 -1.5t14 -0.5q53 0 97 28l23 16l33 -47
q-32 -27 -70 -41.5t-81 -14.5q-103 0 -173 68t-70 167q0 22 4 46t13 47q26 70 85 110.5t135 40.5h18.5t26.5 -4q64 -11 113 -52z" />
    <glyph glyph-name="ordfeminine" unicode="&#xaa;" horiz-adv-x="446" 
d="M53 336h350v-68h-350v68zM329 655v65h74v-335h-75v69l-3 -8l-4 -8q-16 -28 -47 -45t-69 -17q-32 0 -62 13q-80 31 -97 126l-3 39q0 77 48 127t114 50q15 0 30 -3q55 -12 85 -57l5 -9zM120 554q-1 -5 -0.5 -11.5t2.5 -11.5q6 -35 28 -58t55 -29q14 -2 22 -2q21 0 39 9
q50 22 62 80q2 7 2 22t-2 23q-12 58 -60 80q-9 4 -22.5 7t-21.5 3q-38 0 -66.5 -24.5t-36.5 -67.5z" />
    <glyph glyph-name="guillemotleft" unicode="&#xab;" horiz-adv-x="622" 
d="M32 244l270 238l62 -67l-198 -169l198 -175l-61 -69zM257 244l269 238l63 -67l-198 -169l197 -175l-62 -69z" />
    <glyph glyph-name="logicalnot" unicode="&#xac;" horiz-adv-x="590" 
d="M43 360v90h504v-234h-72v144h-432z" />
    <glyph glyph-name="registered" unicode="&#xae;" horiz-adv-x="862" 
d="M58 361q0 74 28 142t81.5 121.5t121.5 81t142 27.5q73 0 141 -27t123 -82q109 -109 109 -263q0 -155 -109 -264t-264 -109t-264 109t-109 264zM112 361q0 -65 24 -124.5t69.5 -105.5t104.5 -70.5t121 -24.5t120.5 24t104 70t70 107t24.5 123q0 64 -23.5 123t-69 105.5
t-105 71t-121.5 24.5q-63 0 -120.5 -23t-104.5 -71q-94 -96 -94 -229zM311 135v460h114q39 0 62.5 -6t42.5 -21q33 -29 42 -72q3 -17 3 -31q0 -47 -28 -79.5t-74 -40.5l-15 -1l141 -209h-77l-146 223v-223h-65zM376 381h38q44 0 69 21t25 58q0 81 -89 81h-43v-160z" />
    <glyph glyph-name="macron" unicode="&#xaf;" horiz-adv-x="339" 
d="M-1 555v74h342v-74h-342z" />
    <glyph glyph-name="plusminus" unicode="&#xb1;" horiz-adv-x="549" 
d="M506 87v-68h-462v68h462zM309 453v-122h197v-68h-197v-122h-68v122h-197v68h197v122h68z" />
    <glyph glyph-name="acute" unicode="&#xb4;" horiz-adv-x="251" 
d="M57 577l116 164l88 -58l-138 -150z" />
    <glyph glyph-name="mu" unicode="&#xb5;" horiz-adv-x="576" 
d="M166 449v-296q0 -71 14 -95t50 -24q57 0 95 81t38 204v130h92v-328q0 -45 9.5 -66t28.5 -21q20 0 31.5 20.5t11.5 61.5v14h21l1 -9v-13q0 -55 -23.5 -86t-66.5 -31q-49 0 -75.5 43t-26.5 129q-23 -89 -61.5 -130.5t-96.5 -41.5q-42 0 -73 26q-28 27 -40 77l-1 -28
q0 -65 32 -142t32 -91q0 -20 -11 -31t-31 -11q-23 0 -33 17t-10 53l2 58l2 89l-1 101l-2 95v245h92z" />
    <glyph glyph-name="paragraph" unicode="&#xb6;" horiz-adv-x="600" 
d="M241 720h316v-58h-316q-58 0 -99 -42t-41 -102q0 -58 41 -99t99 -41h67v238h61v-616h-61v320h-67q-82 0 -140 58t-58 142q0 83 57.5 141.5t140.5 58.5zM434 0v616h61v-616h-61z" />
    <glyph glyph-name="periodcentered" unicode="&#xb7;" 
d="M224 243q0 29 21 51t51 22t52 -21t22 -52t-21 -52t-53 -21q-30 0 -51 21t-21 52z" />
    <glyph glyph-name="cedilla" unicode="&#xb8;" horiz-adv-x="185" 
d="M25 -173l80 139l80 -29l-92 -134z" />
    <glyph glyph-name="ordmasculine" unicode="&#xba;" horiz-adv-x="446" 
d="M49 268v68h349v-68h-349zM43 554v15.5t4 21.5q13 65 61 105t113 40h15.5t22.5 -4q65 -13 105 -62.5t40 -114.5v-23q-3 -11 -4 -15q-14 -64 -62.5 -104t-113.5 -40q-15 0 -23 1q-10 3 -14 3q-54 11 -91.5 48t-48.5 92q-4 17 -4 37zM117 554l2 -20q13 -74 82 -89
q6 -1 11.5 -1.5t11.5 -0.5q38 0 66.5 24.5t36.5 65.5q2 16 2 22q0 60 -45 91q-12 9 -28 14.5t-33 5.5q-22 0 -43 -9q-50 -24 -61 -82z" />
    <glyph glyph-name="guillemotright" unicode="&#xbb;" horiz-adv-x="623" 
d="M32 72l199 172l-197 174l61 67l270 -244l-271 -238zM257 72l199 172l-198 174l62 67l269 -244l-270 -238z" />
    <glyph glyph-name="questiondown" unicode="&#xbf;" horiz-adv-x="509" 
d="M221 662q0 29 21 50t51 21q29 0 49.5 -20.5t20.5 -50.5t-20 -51t-51 -21q-29 0 -50 21t-21 51zM505 179q-47 -194 -239 -194q-106 0 -174.5 65.5t-68.5 165.5q0 133 125 195l56 27q23 11 30 23l2 10l2 17v45h109v-69q0 -38 -8 -53.5t-35 -26.5l-19 -9
q-36 -17 -61.5 -30.5t-40.5 -23.5q-53 -35 -53 -107q0 -60 37.5 -98.5t96.5 -38.5q57 0 92 32t43 91z" />
    <glyph glyph-name="Agrave" unicode="&#xc0;" horiz-adv-x="625" 
d="M-29 0l287 721h107l288 -721h-122l-69 179h-300l-69 -179h-122zM292 524l-94 -253h229l-95 253q-3 10 -6.5 21t-5.5 18.5t-4 20.5t-4 35q0 -21 -3 -35t-5 -23zM182 950l88 57l115 -162l-68 -45z" />
    <glyph glyph-name="Aacute" unicode="&#xc1;" horiz-adv-x="625" 
d="M-29 0l287 721h107l288 -721h-122l-69 179h-300l-69 -179h-122zM292 524l-94 -253h229l-95 253q-3 10 -6.5 21t-5.5 18.5t-4 20.5t-4 35q0 -21 -3 -35t-5 -23zM244 847l116 164l88 -58l-138 -150z" />
    <glyph glyph-name="Acircumflex" unicode="&#xc2;" horiz-adv-x="625" 
d="M-29 0l287 721h107l288 -721h-122l-69 179h-300l-69 -179h-122zM292 524l-94 -253h229l-95 253q-3 10 -6.5 21t-5.5 18.5t-4 20.5t-4 35q0 -21 -3 -35t-5 -23zM135 871l178 118l177 -119l-41 -69l-136 82l-139 -78z" />
    <glyph glyph-name="Atilde" unicode="&#xc3;" horiz-adv-x="625" 
d="M-29 0l287 721h107l288 -721h-122l-69 179h-300l-69 -179h-122zM292 524l-94 -253h229l-95 253q-3 10 -6.5 21t-5.5 18.5t-4 20.5t-4 35q0 -21 -3 -35t-5 -23zM158 811v81q17 6 35.5 10t34.5 4q25 0 50 -7l42 -11q42 -8 68 -8q42 0 79 21v-82q-40 -15 -76 -15
q-32 0 -76 10l-43 10q-8 2 -19 3t-20 1q-23 0 -37 -3t-38 -14z" />
    <glyph glyph-name="Adieresis" unicode="&#xc4;" horiz-adv-x="625" 
d="M129 783q0 27 19 46t49 19q27 0 47 -19t20 -46t-19 -45t-49 -18q-28 0 -47.5 18.5t-19.5 44.5zM360 783q0 27 19 46t48 19q28 0 48 -19t20 -45q0 -27 -19.5 -45.5t-47.5 -18.5t-48 18t-20 45zM-29 0l287 721h107l288 -721h-122l-69 179h-300l-69 -179h-122zM292 524
l-94 -253h229l-95 253q-3 10 -6.5 21t-5.5 18.5t-4 20.5t-4 35q0 -21 -3 -35t-5 -23z" />
    <glyph glyph-name="Aring" unicode="&#xc5;" horiz-adv-x="623" 
d="M-29 0l286 702h19q-36 19 -50.5 37.5t-14.5 45.5q0 42 29 71t72 29q42 0 71.5 -29.5t29.5 -70.5q0 -27 -13 -44.5t-49 -38.5h18l283 -702h-119l-71 181h-301l-71 -181h-119zM195 272h233l-96 252q-9 24 -13.5 43t-7.5 52q0 -27 -4 -46.5t-15 -48.5zM266 789q0 -20 13 -33
t33 -13q18 0 32 13t14 33q0 19 -13.5 32.5t-32.5 13.5t-32.5 -13.5t-13.5 -32.5z" />
    <glyph glyph-name="AE" unicode="&#xc6;" horiz-adv-x="877" 
d="M-29 0l433 721h432v-100h-270v-185l233 1l-1 -98h-232v-238h282v-101h-397v187h-239l-114 -187h-127zM451 612l-188 -332h188v332z" />
    <glyph glyph-name="Ccedilla" unicode="&#xc7;" horiz-adv-x="652" 
d="M637 655l-61 -89l-32 23q-59 36 -134 36q-112 0 -187.5 -76.5t-75.5 -189.5q0 -115 74.5 -191.5t187.5 -76.5q53 0 103 21q29 12 64 39l60 -88l-40 -27q-85 -51 -199 -51q-158 0 -262.5 105.5t-104.5 264.5q0 162 106 270t267 108q71 0 131 -22q26 -9 47 -20t56 -36z
M265 -168l80 140l80 -29l-92 -134z" />
    <glyph glyph-name="Egrave" unicode="&#xc8;" horiz-adv-x="478" 
d="M52 0v721h386v-96h-270v-189h232v-95h-232v-245h282v-96h-398zM109 950l88 57l115 -162l-68 -45z" />
    <glyph glyph-name="Eacute" unicode="&#xc9;" horiz-adv-x="478" 
d="M52 0v721h386v-96h-270v-189h232v-95h-232v-245h282v-96h-398zM170 847l116 164l88 -58l-138 -150z" />
    <glyph glyph-name="Ecircumflex" unicode="&#xca;" horiz-adv-x="478" 
d="M52 0v721h386v-96h-270v-189h232v-95h-232v-245h282v-96h-398zM61 871l178 118l177 -119l-41 -69l-136 82l-139 -78z" />
    <glyph glyph-name="Edieresis" unicode="&#xcb;" horiz-adv-x="478" 
d="M52 0v721h386v-96h-270v-189h232v-95h-232v-245h282v-96h-398zM64 870q0 28 19 47t49 19q28 0 47 -19t19 -47q0 -29 -19.5 -48.5t-47.5 -19.5t-47.5 19.5t-19.5 48.5zM280 870q0 28 19 47t47 19t48 -19t20 -47q0 -29 -19.5 -48.5t-48.5 -19.5q-28 0 -47 19t-19 49z" />
    <glyph glyph-name="Igrave" unicode="&#xcc;" horiz-adv-x="219" 
d="M52 0v721h116v-721h-116zM-20 950l88 57l115 -162l-68 -45z" />
    <glyph glyph-name="Iacute" unicode="&#xcd;" horiz-adv-x="219" 
d="M52 0v721h116v-721h-116zM41 847l116 164l88 -58l-138 -150z" />
    <glyph glyph-name="Icircumflex" unicode="&#xce;" horiz-adv-x="219" 
d="M52 0v721h116v-721h-116zM-68 871l178 118l177 -119l-41 -69l-136 82l-139 -78z" />
    <glyph glyph-name="Idieresis" unicode="&#xcf;" horiz-adv-x="219" 
d="M52 0v721h116v-721h-116zM-65 870q0 28 19 47t49 19q28 0 47 -19t19 -47q0 -29 -19.5 -48.5t-47.5 -19.5t-47.5 19.5t-19.5 48.5zM151 870q0 28 19 47t47 19t48 -19t20 -47q0 -29 -19.5 -48.5t-48.5 -19.5q-28 0 -47 19t-19 49z" />
    <glyph glyph-name="Ntilde" unicode="&#xd1;" horiz-adv-x="745" 
d="M52 0v721h105l387 -484q24 -30 50 -94q-7 35 -12 67.5t-5 43.5v467h116v-721h-102l-392 488q-25 30 -49 89l5 -23l4 -25q9 -50 9 -57v-472h-116zM218 811v81q17 6 35.5 10t34.5 4q25 0 50 -7l42 -11q42 -8 68 -8q42 0 79 21v-82q-40 -15 -76 -15q-32 0 -76 10l-43 10
q-8 2 -19 3t-20 1q-23 0 -37 -3t-38 -14z" />
    <glyph glyph-name="Ograve" unicode="&#xd2;" horiz-adv-x="813" 
d="M30 360q0 160 107 268t269 108q161 0 269 -108t108 -268t-108 -268t-269 -108t-268.5 107.5t-107.5 268.5zM406 628q-110 0 -185.5 -77.5t-75.5 -190.5q0 -112 76 -190t185 -78q110 0 186 77t76 191q0 112 -76 190t-186 78zM276 950l88 57l115 -162l-68 -45z" />
    <glyph glyph-name="Oacute" unicode="&#xd3;" horiz-adv-x="813" 
d="M30 360q0 160 107 268t269 108q161 0 269 -108t108 -268t-108 -268t-269 -108t-268.5 107.5t-107.5 268.5zM406 628q-110 0 -185.5 -77.5t-75.5 -190.5q0 -112 76 -190t185 -78q110 0 186 77t76 191q0 112 -76 190t-186 78zM338 847l116 164l88 -58l-138 -150z" />
    <glyph glyph-name="Ocircumflex" unicode="&#xd4;" horiz-adv-x="813" 
d="M30 360q0 160 107 268t269 108q161 0 269 -108t108 -268t-108 -268t-269 -108t-268.5 107.5t-107.5 268.5zM406 628q-110 0 -185.5 -77.5t-75.5 -190.5q0 -112 76 -190t185 -78q110 0 186 77t76 191q0 112 -76 190t-186 78zM229 871l178 118l177 -119l-41 -69l-136 82
l-139 -78z" />
    <glyph glyph-name="Otilde" unicode="&#xd5;" horiz-adv-x="813" 
d="M30 360q0 160 107 268t269 108q161 0 269 -108t108 -268t-108 -268t-269 -108t-268.5 107.5t-107.5 268.5zM406 628q-110 0 -185.5 -77.5t-75.5 -190.5q0 -112 76 -190t185 -78q110 0 186 77t76 191q0 112 -76 190t-186 78zM252 811v81q17 6 35.5 10t34.5 4q25 0 50 -7
l42 -11q42 -8 68 -8q42 0 79 21v-82q-40 -15 -76 -15q-32 0 -76 10l-43 10q-8 2 -19 3t-20 1q-23 0 -37 -3t-38 -14z" />
    <glyph glyph-name="Odieresis" unicode="&#xd6;" horiz-adv-x="813" 
d="M105 760q0 27 20.5 46.5t48.5 19.5q29 0 49 -19t20 -48q0 -27 -20.5 -45.5t-48.5 -18.5q-29 0 -49 19t-20 46zM564 759q0 28 20.5 47.5t49.5 19.5q31 0 52.5 -19.5t21.5 -46.5t-21 -46t-52 -19q-30 0 -50.5 18.5t-20.5 45.5zM30 360q0 160 107 268t269 108
q161 0 269 -108t108 -268t-108 -268t-269 -108t-268.5 107.5t-107.5 268.5zM406 628q-110 0 -185.5 -77.5t-75.5 -190.5q0 -112 76 -190t185 -78q110 0 186 77t76 191q0 112 -76 190t-186 78z" />
    <glyph glyph-name="Oslash" unicode="&#xd8;" horiz-adv-x="819" 
d="M664 638l92 92l34 -35l-92 -90q12 -15 19 -25.5t14 -21.5q25 -43 39 -94.5t14 -104.5q0 -159 -109.5 -267.5t-268.5 -108.5q-76 0 -140 26q-27 10 -48 23t-58 43l-94 -94l-36 33l94 93l-39 51q-25 42 -40 96t-15 107q0 160 108.5 268.5t267.5 108.5q74 0 141 -26
q33 -13 56 -27.5t61 -46.5zM616 522l-375 -368q21 -18 37 -28t32 -17q44 -17 96 -17q110 0 186 77t76 191q0 85 -52 162zM205 189l378 370q-24 19 -41.5 29.5t-37.5 17.5t-45.5 12t-49.5 5q-109 0 -184.5 -76.5t-75.5 -187.5q0 -79 36 -138z" />
    <glyph glyph-name="Ugrave" unicode="&#xd9;" horiz-adv-x="645" 
d="M592 721v-439q0 -76 -7 -111q-19 -87 -89 -137t-173 -50q-130 0 -205 78q-38 39 -52 85.5t-14 134.5v439h116v-428v-43.5t4 -40.5q8 -55 48.5 -86.5t101.5 -31.5q78 0 120 48q22 25 29 54.5t7 99.5v428h114zM192 950l88 57l115 -162l-68 -45z" />
    <glyph glyph-name="Uacute" unicode="&#xda;" horiz-adv-x="645" 
d="M592 721v-439q0 -76 -7 -111q-19 -87 -89 -137t-173 -50q-130 0 -205 78q-38 39 -52 85.5t-14 134.5v439h116v-428v-43.5t4 -40.5q8 -55 48.5 -86.5t101.5 -31.5q78 0 120 48q22 25 29 54.5t7 99.5v428h114zM254 847l116 164l88 -58l-138 -150z" />
    <glyph glyph-name="Ucircumflex" unicode="&#xdb;" horiz-adv-x="645" 
d="M592 721v-439q0 -76 -7 -111q-19 -87 -89 -137t-173 -50q-130 0 -205 78q-38 39 -52 85.5t-14 134.5v439h116v-428v-43.5t4 -40.5q8 -55 48.5 -86.5t101.5 -31.5q78 0 120 48q22 25 29 54.5t7 99.5v428h114zM145 871l178 118l177 -119l-41 -69l-136 82l-139 -78z" />
    <glyph glyph-name="Udieresis" unicode="&#xdc;" horiz-adv-x="645" 
d="M152 781q0 26 20 45t49 19q27 0 47 -19t20 -45q0 -27 -20 -45t-49 -18q-27 0 -47 18t-20 45zM358 781q0 27 19.5 45.5t47.5 18.5t47.5 -18.5t19.5 -44.5q0 -27 -19.5 -45.5t-46.5 -18.5q-28 0 -48 18t-20 45zM592 721v-439q0 -76 -7 -111q-19 -87 -89 -137t-173 -50
q-130 0 -205 78q-38 39 -52 85.5t-14 134.5v439h116v-428v-43.5t4 -40.5q8 -55 48.5 -86.5t101.5 -31.5q78 0 120 48q22 25 29 54.5t7 99.5v428h114z" />
    <glyph glyph-name="germandbls" unicode="&#xdf;" horiz-adv-x="556" 
d="M53 0v518q0 100 57 158t156 58q90 0 149.5 -55.5t59.5 -139.5q0 -109 -94 -148q69 -14 109.5 -63.5t40.5 -122.5q0 -96 -63 -158t-161 -62q-32 0 -52.5 4.5t-46.5 18.5l21 99q16 -10 34 -15.5t34 -5.5q51 0 84 36t33 90q0 53 -36 86t-95 33h-60l1 99h33q51 0 81 28t30 78
q0 44 -28.5 72.5t-72.5 28.5q-49 0 -76.5 -31.5t-27.5 -86.5v-519h-110z" />
    <glyph glyph-name="agrave" unicode="&#xe0;" horiz-adv-x="588" 
d="M424 414v72h111v-486h-111v67q-54 -82 -160 -82q-101 0 -167.5 72.5t-66.5 184.5q0 109 67 183t165 74q83 0 138 -55q12 -10 24 -30zM284 403q-60 0 -101 -46t-41 -116q0 -69 41 -115t103 -46q63 0 103.5 46.5t40.5 116.5q0 69 -41.5 114.5t-104.5 45.5zM164 680l88 57
l115 -162l-68 -45z" />
    <glyph glyph-name="aacute" unicode="&#xe1;" horiz-adv-x="588" 
d="M424 414v72h111v-486h-111v67q-54 -82 -160 -82q-101 0 -167.5 72.5t-66.5 184.5q0 109 67 183t165 74q83 0 138 -55q12 -10 24 -30zM284 403q-60 0 -101 -46t-41 -116q0 -69 41 -115t103 -46q63 0 103.5 46.5t40.5 116.5q0 69 -41.5 114.5t-104.5 45.5zM225 577l116 164
l88 -58l-138 -150z" />
    <glyph glyph-name="acircumflex" unicode="&#xe2;" horiz-adv-x="588" 
d="M424 414v72h111v-486h-111v67q-54 -82 -160 -82q-101 0 -167.5 72.5t-66.5 184.5q0 109 67 183t165 74q83 0 138 -55q12 -10 24 -30zM284 403q-60 0 -101 -46t-41 -116q0 -69 41 -115t103 -46q63 0 103.5 46.5t40.5 116.5q0 69 -41.5 114.5t-104.5 45.5zM116 601l178 118
l177 -119l-41 -69l-136 82l-139 -78z" />
    <glyph glyph-name="atilde" unicode="&#xe3;" horiz-adv-x="588" 
d="M424 414v72h111v-486h-111v67q-54 -82 -160 -82q-101 0 -167.5 72.5t-66.5 184.5q0 109 67 183t165 74q83 0 138 -55q12 -10 24 -30zM284 403q-60 0 -101 -46t-41 -116q0 -69 41 -115t103 -46q63 0 103.5 46.5t40.5 116.5q0 69 -41.5 114.5t-104.5 45.5zM140 541v81
q17 6 35.5 10t34.5 4q25 0 50 -7l42 -11q42 -8 68 -8q42 0 79 21v-82q-40 -15 -76 -15q-32 0 -76 10l-43 10q-8 2 -19 3t-20 1q-23 0 -37 -3t-38 -14z" />
    <glyph glyph-name="adieresis" unicode="&#xe4;" horiz-adv-x="588" 
d="M424 416v70h111v-486h-111v67q-54 -82 -160 -82q-102 0 -168 73t-66 185q0 108 67 183t165 75q83 0 138 -55q4 -4 10.5 -11.5t13.5 -18.5zM121 625q0 28 19.5 47.5t47.5 19.5t47.5 -19.5t19.5 -47.5t-19.5 -47.5t-47.5 -19.5q-29 0 -48 19t-19 48zM338 625q0 27 20 47
t47 20q28 0 47.5 -19.5t19.5 -47.5t-19.5 -47.5t-47.5 -19.5t-47.5 19.5t-19.5 47.5zM142 236q0 -68 41 -112t103 -44q63 0 103.5 46.5t40.5 117.5q0 69 -41.5 114.5t-104.5 45.5q-62 0 -102 -46t-40 -116v-6z" />
    <glyph glyph-name="aring" unicode="&#xe5;" horiz-adv-x="587" 
d="M423 418v67h112v-485h-112v66q-11 -19 -20 -27q-50 -55 -139 -55q-102 0 -168 73t-66 186q0 111 66.5 185.5t164.5 74.5q85 0 139 -54q10 -10 23 -31zM184 625q0 40 29.5 67.5t70.5 27.5q43 0 72 -27t29 -68q0 -40 -29 -68t-72 -28q-42 0 -71 28t-29 68zM142 243
q0 -72 40 -118t104 -46t104 46t40 119q0 70 -41 116t-105 46q-62 0 -102 -46t-40 -117zM285 671q-20 0 -33 -13t-13 -33q0 -19 13 -33t32 -14q20 0 33.5 13.5t13.5 33.5t-13 33t-33 13z" />
    <glyph glyph-name="ae" unicode="&#xe6;" horiz-adv-x="885" 
d="M378 283q0 63 -39.5 97.5t-107.5 34.5q-30 0 -58 -6t-64 -21l-34 77l35 15q61 21 124 21q165 0 198 -118q15 53 63.5 84t118.5 31q108 0 176.5 -71.5t68.5 -184.5l-2 -45h-380q22 -120 139 -120q95 0 134 87l98 -38q-12 -22 -19.5 -33t-16.5 -23q-76 -86 -198 -86
q-106 0 -163 60q-12 13 -26 36q-25 -45 -77 -71t-119 -26q-87 0 -143 48t-56 123q0 74 60 121t156 47q65 0 110 -24zM132 155v-6q0 -35 31 -57t79 -22q58 0 96 31t38 78q0 66 -115 66q-60 0 -94.5 -24t-34.5 -66zM614 414q-60 0 -98 -36t-38 -99h267q0 63 -35 99t-96 36z
" />
    <glyph glyph-name="ccedilla" unicode="&#xe7;" horiz-adv-x="450" 
d="M439 465l-35 -94q-56 28 -103 28q-68 0 -112.5 -44.5t-44.5 -114.5q0 -69 43.5 -112.5t111.5 -43.5q29 0 51 7t53 26l39 -87l-33 -18q-57 -27 -126 -27q-110 0 -181.5 71.5t-71.5 182.5q0 112 75 186t189 74q42 0 73 -7t72 -27zM169 -165l80 139l80 -29l-92 -134z" />
    <glyph glyph-name="egrave" unicode="&#xe8;" horiz-adv-x="555" 
d="M526 202h-383q10 -60 47.5 -95t93.5 -35q41 0 78.5 23.5t63.5 65.5l88 -55q-44 -63 -99 -92.5t-131 -29.5q-113 0 -184 70t-71 184t71.5 187.5t181.5 73.5q109 0 177.5 -72.5t68.5 -187.5zM281 413q-54 0 -90.5 -34t-47.5 -96h268q0 59 -36.5 94.5t-93.5 35.5zM147 680
l88 57l115 -162l-68 -45z" />
    <glyph glyph-name="eacute" unicode="&#xe9;" horiz-adv-x="555" 
d="M526 202h-383q10 -60 47.5 -95t93.5 -35q41 0 78.5 23.5t63.5 65.5l88 -55q-44 -63 -99 -92.5t-131 -29.5q-113 0 -184 70t-71 184t71.5 187.5t181.5 73.5q109 0 177.5 -72.5t68.5 -187.5zM281 413q-54 0 -90.5 -34t-47.5 -96h268q0 59 -36.5 94.5t-93.5 35.5zM209 577
l116 164l88 -58l-138 -150z" />
    <glyph glyph-name="ecircumflex" unicode="&#xea;" horiz-adv-x="555" 
d="M526 202h-383q10 -60 47.5 -95t93.5 -35q41 0 78.5 23.5t63.5 65.5l88 -55q-44 -63 -99 -92.5t-131 -29.5q-113 0 -184 70t-71 184t71.5 187.5t181.5 73.5q109 0 177.5 -72.5t68.5 -187.5zM281 413q-54 0 -90.5 -34t-47.5 -96h268q0 59 -36.5 94.5t-93.5 35.5zM100 601
l178 118l177 -119l-41 -69l-136 82l-139 -78z" />
    <glyph glyph-name="edieresis" unicode="&#xeb;" horiz-adv-x="555" 
d="M526 202h-383q10 -60 47.5 -95t93.5 -35q41 0 78.5 23.5t63.5 65.5l88 -55q-44 -63 -99 -92.5t-131 -29.5q-113 0 -184 70t-71 184t71.5 187.5t181.5 73.5q109 0 177.5 -72.5t68.5 -187.5zM281 413q-54 0 -90.5 -34t-47.5 -96h268q0 59 -36.5 94.5t-93.5 35.5zM102 600
q0 28 19 47t49 19q28 0 47 -19t19 -47q0 -29 -19.5 -48.5t-47.5 -19.5t-47.5 19.5t-19.5 48.5zM318 600q0 28 19 47t47 19t48 -19t20 -47q0 -29 -19.5 -48.5t-48.5 -19.5q-28 0 -47 19t-19 49z" />
    <glyph glyph-name="igrave" unicode="&#xec;" horiz-adv-x="186" 
d="M39 0v486h111v-486h-111zM-37 680l88 57l115 -162l-68 -45z" />
    <glyph glyph-name="iacute" unicode="&#xed;" horiz-adv-x="186" 
d="M39 0v486h111v-486h-111zM25 577l116 164l88 -58l-138 -150z" />
    <glyph glyph-name="icircumflex" unicode="&#xee;" horiz-adv-x="186" 
d="M39 0v486h111v-486h-111zM-84 601l178 118l177 -119l-41 -69l-136 82l-139 -78z" />
    <glyph glyph-name="idieresis" unicode="&#xef;" horiz-adv-x="186" 
d="M39 0v486h111v-486h-111zM-82 600q0 28 19 47t49 19q28 0 47 -19t19 -47q0 -29 -19.5 -48.5t-47.5 -19.5t-47.5 19.5t-19.5 48.5zM134 600q0 28 19 47t47 19t48 -19t20 -47q0 -29 -19.5 -48.5t-48.5 -19.5q-28 0 -47 19t-19 49z" />
    <glyph glyph-name="ntilde" unicode="&#xf1;" horiz-adv-x="535" 
d="M52 0v486h111v-75q55 90 156 90q37 0 70 -14t55.5 -39t30.5 -54.5t8 -85.5v-308h-111v280q0 32 -4 57.5t-30.5 46t-61.5 20.5q-53 0 -83 -37t-30 -102v-265h-111zM113 541v81q17 6 35.5 10t34.5 4q25 0 50 -7l42 -11q42 -8 68 -8q42 0 79 21v-82q-40 -15 -76 -15
q-32 0 -76 10l-43 10q-8 2 -19 3t-20 1q-23 0 -37 -3t-38 -14z" />
    <glyph glyph-name="ograve" unicode="&#xf2;" horiz-adv-x="586" 
d="M30 242q0 111 75 184t188 73t188 -73t75 -184t-74 -184t-189 -73q-113 0 -188 73t-75 184zM293 403q-67 0 -111 -46t-44 -115t44.5 -114.5t110.5 -45.5q67 0 111 45t44 115q0 69 -44 115t-111 46zM163 680l88 57l115 -162l-68 -45z" />
    <glyph glyph-name="oacute" unicode="&#xf3;" horiz-adv-x="586" 
d="M30 242q0 111 75 184t188 73t188 -73t75 -184t-74 -184t-189 -73q-113 0 -188 73t-75 184zM293 403q-67 0 -111 -46t-44 -115t44.5 -114.5t110.5 -45.5q67 0 111 45t44 115q0 69 -44 115t-111 46zM224 577l116 164l88 -58l-138 -150z" />
    <glyph glyph-name="ocircumflex" unicode="&#xf4;" horiz-adv-x="586" 
d="M30 242q0 111 75 184t188 73t188 -73t75 -184t-74 -184t-189 -73q-113 0 -188 73t-75 184zM293 403q-67 0 -111 -46t-44 -115t44.5 -114.5t110.5 -45.5q67 0 111 45t44 115q0 69 -44 115t-111 46zM115 601l178 118l177 -119l-41 -69l-136 82l-139 -78z" />
    <glyph glyph-name="otilde" unicode="&#xf5;" horiz-adv-x="586" 
d="M30 242q0 111 75 184t188 73t188 -73t75 -184t-74 -184t-189 -73q-113 0 -188 73t-75 184zM293 403q-67 0 -111 -46t-44 -115t44.5 -114.5t110.5 -45.5q67 0 111 45t44 115q0 69 -44 115t-111 46zM139 541v81q17 6 35.5 10t34.5 4q25 0 50 -7l42 -11q42 -8 68 -8
q42 0 79 21v-82q-40 -15 -76 -15q-32 0 -76 10l-43 10q-8 2 -19 3t-20 1q-23 0 -37 -3t-38 -14z" />
    <glyph glyph-name="odieresis" unicode="&#xf6;" horiz-adv-x="586" 
d="M123 624q0 28 20 48t48 20t47 -19t19 -49q0 -28 -19 -47t-48 -19q-27 0 -47 19t-20 47zM329 624q0 28 19 48t47 20t48 -19t20 -49q0 -27 -19.5 -46.5t-47.5 -19.5q-27 0 -47 19t-20 47zM30 242q0 111 75 184t188 73t188 -73t75 -184t-74 -184t-189 -73q-113 0 -188 73
t-75 184zM293 403q-67 0 -111 -46t-44 -115t44.5 -114.5t110.5 -45.5q67 0 111 45t44 115q0 69 -44 115t-111 46z" />
    <glyph glyph-name="divide" unicode="&#xf7;" horiz-adv-x="549" 
d="M234 141q19 17 41 17q24 0 40 -16t16 -41q0 -24 -17 -40q-15 -17 -39 -17t-40.5 17.5t-16.5 39.5q0 24 16 40zM506 270v-68h-463v68h463zM234 410q19 17 41 17q24 0 39 -17q17 -17 17 -40q0 -24 -17 -40q-15 -17 -39 -17t-40.5 16.5t-16.5 40.5t16 40z" />
    <glyph glyph-name="oslash" unicode="&#xf8;" horiz-adv-x="590" 
d="M468 441l64 57l29 -34l-59 -56l18 -27q37 -60 37 -139q0 -111 -75 -184t-189 -73q-46 0 -88 13q-27 9 -38 15t-43 28l-60 -58l-34 29l62 63l-24 30q-18 24 -28 60.5t-10 76.5q0 112 74 186t189 74q43 0 85 -13.5t90 -47.5zM425 335l-226 -220q44 -33 94 -33
q66 0 110.5 45.5t44.5 113.5q0 45 -23 94zM169 148l225 220q-46 35 -98 35q-67 0 -111 -45t-44 -114q0 -32 5 -50t23 -46z" />
    <glyph glyph-name="ugrave" unicode="&#xf9;" horiz-adv-x="539" 
d="M488 486v-286q0 -45 -9 -81q-19 -59 -76.5 -96t-132.5 -37q-91 0 -154 51q-34 28 -49 65.5t-15 97.5v286h111v-275q0 -31 5 -49q7 -33 34 -52t68 -19q52 0 80 30q16 16 21 34t5 56v275h112zM139 680l88 57l115 -162l-68 -45z" />
    <glyph glyph-name="uacute" unicode="&#xfa;" horiz-adv-x="539" 
d="M488 486v-286q0 -45 -9 -81q-19 -59 -76.5 -96t-132.5 -37q-91 0 -154 51q-34 28 -49 65.5t-15 97.5v286h111v-275q0 -31 5 -49q7 -33 34 -52t68 -19q52 0 80 30q16 16 21 34t5 56v275h112zM201 577l116 164l88 -58l-138 -150z" />
    <glyph glyph-name="ucircumflex" unicode="&#xfb;" horiz-adv-x="539" 
d="M488 486v-286q0 -45 -9 -81q-19 -59 -76.5 -96t-132.5 -37q-91 0 -154 51q-34 28 -49 65.5t-15 97.5v286h111v-275q0 -31 5 -49q7 -33 34 -52t68 -19q52 0 80 30q16 16 21 34t5 56v275h112zM92 601l178 118l177 -119l-41 -69l-136 82l-139 -78z" />
    <glyph glyph-name="udieresis" unicode="&#xfc;" horiz-adv-x="539" 
d="M97 624q0 28 20 48t47 20q28 0 47 -19t19 -48q0 -28 -19.5 -47.5t-47.5 -19.5t-47 19t-19 47zM309 625q0 28 19.5 47.5t47.5 19.5t47 -19t19 -49q0 -27 -19.5 -46.5t-46.5 -19.5q-28 0 -47.5 19.5t-19.5 47.5zM488 486v-286q0 -45 -9 -81q-19 -59 -76.5 -96t-132.5 -37
q-91 0 -154 51q-34 28 -49 65.5t-15 97.5v286h111v-275q0 -31 5 -49q7 -33 34 -52t68 -19q52 0 80 30q16 16 21 34t5 56v275h112z" />
    <glyph glyph-name="ydieresis" unicode="&#xff;" horiz-adv-x="437" 
d="M-29 486h120l107 -278q10 -24 14 -40.5t7 -47.5l7 35q6 26 16 53l107 278h122l-216 -523l-10 -21q-19 -45 -27.5 -61t-21.5 -31q-20 -23 -53.5 -36t-73.5 -13q-22 0 -37.5 2t-37.5 10l21 97q25 -8 47 -8q46 0 68 37q7 14 10 22q13 28 22 53zM43 600q0 28 19 47t49 19
q28 0 47 -19t19 -47q0 -29 -19.5 -48.5t-47.5 -19.5t-47.5 19.5t-19.5 48.5zM259 600q0 28 19 47t47 19t48 -19t20 -47q0 -29 -19.5 -48.5t-48.5 -19.5q-28 0 -47 19t-19 49z" />
    <glyph glyph-name="dotlessi" unicode="&#x131;" horiz-adv-x="186" 
d="M39 0v486h111v-486h-111z" />
    <glyph glyph-name="OE" unicode="&#x152;" horiz-adv-x="1069" 
d="M643 638v83h385v-100h-270v-185h232v-97h-232v-238h282v-101h-397v84l-24 -26q-35 -34 -90.5 -53t-120.5 -19q-162 0 -269.5 106.5t-107.5 266.5q0 159 108 267t267 108t237 -96zM411 624q-110 0 -186 -76t-76 -187q0 -112 76 -188t189 -76q60 0 109.5 21t80.5 60
q23 30 34 72.5t11 107.5q0 84 -12 125t-46.5 73t-82 50t-97.5 18z" />
    <glyph glyph-name="oe" unicode="&#x153;" horiz-adv-x="965" 
d="M502 388q51 110 187 110q108 0 179 -71t71 -179l-2 -52h-379q25 -119 140 -119q92 0 133 87l98 -38q-16 -27 -25 -40.5t-23 -27.5q-76 -74 -184 -74q-149 0 -199 112l-18 -28q-4 -5 -11 -13q-64 -70 -177 -70q-114 0 -188 72t-74 183t75.5 184.5t189.5 73.5
q113 0 177 -71q6 -6 14.5 -16.5t15.5 -22.5zM294 398q-69 0 -112 -44t-43 -114q0 -68 43 -112t111 -44q69 0 112.5 44.5t43.5 115.5q0 68 -43 111t-112 43zM696 410q-57 0 -93 -35t-42 -98h263q0 63 -34 98t-94 35z" />
    <glyph glyph-name="circumflex" unicode="&#x2c6;" horiz-adv-x="357" 
d="M1 601l178 118l177 -119l-41 -69l-136 82l-139 -78z" />
    <glyph glyph-name="ring" unicode="&#x2da;" horiz-adv-x="268" 
d="M34 622q0 40 29.5 67.5t70.5 27.5q42 0 71.5 -27.5t29.5 -67.5t-29.5 -68.5t-71.5 -28.5t-71 28t-29 69zM135 668q-20 0 -33 -13t-13 -33q0 -19 13 -33t32 -14q20 0 33.5 13.5t13.5 33.5t-13 33t-33 13z" />
    <glyph glyph-name="tilde" unicode="&#x2dc;" horiz-adv-x="310" 
d="M1 541v81q17 6 35.5 10t34.5 4q25 0 50 -7l42 -11q42 -8 68 -8q42 0 79 21v-82q-40 -15 -76 -15q-32 0 -76 10l-43 10q-8 2 -19 3t-20 1q-23 0 -37 -3t-38 -14z" />
    <glyph glyph-name="endash" unicode="&#x2013;" 
d="M57 311v95h479v-95h-479z" />
    <glyph glyph-name="emdash" unicode="&#x2014;" horiz-adv-x="996" 
d="M30 311v95h936v-95h-936z" />
    <glyph glyph-name="quoteleft" unicode="&#x2018;" horiz-adv-x="206" 
d="M8 468l93 271l80 -18l-57 -278z" />
    <glyph glyph-name="quoteright" unicode="&#x2019;" horiz-adv-x="206" 
d="M8 464l54 278l119 -25l-95 -269z" />
    <glyph glyph-name="quotesinglbase" unicode="&#x201a;" horiz-adv-x="205" 
d="M8 -135l54 279l117 -25l-93 -270z" />
    <glyph glyph-name="quotedblleft" unicode="&#x201c;" horiz-adv-x="382" 
d="M8 468l93 270l80 -17l-57 -278zM183 468l94 270l79 -17l-55 -278z" />
    <glyph glyph-name="quotedblright" unicode="&#x201d;" horiz-adv-x="382" 
d="M8 468l54 278l119 -25l-95 -270zM183 468l54 278l119 -25l-94 -270z" />
    <glyph glyph-name="quotedblbase" unicode="&#x201e;" horiz-adv-x="381" 
d="M8 -135l54 279l117 -25l-93 -270zM183 -135l55 279l118 -25l-94 -270z" />
    <glyph glyph-name="dagger" unicode="&#x2020;" horiz-adv-x="586" 
d="M22 403v104h216v230h110v-230h216v-104h-215v-602h-112v602h-215z" />
    <glyph glyph-name="daggerdbl" unicode="&#x2021;" horiz-adv-x="611" 
d="M34 44l1 103l214 -1l1 255h-214v104h214v226h111l1 -226l215 -1v-104h-214l-1 -255l214 -1v-103l-214 1l-1 -236l-112 2v235z" />
    <glyph glyph-name="bullet" unicode="&#x2022;" 
d="M224 243q0 29 21 51t51 22t52 -21t22 -52t-21 -52t-53 -21q-30 0 -51 21t-21 52z" />
    <glyph glyph-name="ellipsis" unicode="&#x2026;" horiz-adv-x="996" 
d="M95 61q0 30 21 51t51 21t51 -21t21 -51t-21 -51t-51 -21t-51 21t-21 51zM428 61q0 30 21 51t51 21t51 -21t21 -51t-21 -51t-51 -21t-51 21t-21 51zM761 61q0 30 21 51t51 21t51 -21t21 -51t-21 -51t-51 -21t-51 21t-21 51z" />
    <glyph glyph-name="perthousand" unicode="&#x2030;" horiz-adv-x="986" 
d="M34 547q0 80 40.5 134.5t98.5 54.5q57 0 98 -55t41 -133q0 -79 -40.5 -133.5t-98.5 -54.5q-57 0 -98 55t-41 132zM146 -8l303 744l69 -27l-306 -741zM355 173q0 80 40.5 134.5t98.5 54.5t99 -55t41 -134q0 -77 -41 -132t-99 -55t-98.5 54.5t-40.5 132.5zM674 173
q0 79 40 134t98 55t99 -55t41 -134q0 -78 -40.5 -132.5t-99.5 -54.5q-58 0 -98 54t-40 133zM494 275q-29 0 -50 -30t-21 -72t20.5 -71.5t50.5 -29.5t51 30t21 71q0 42 -21 72t-51 30zM173 649q-29 0 -50 -30t-21 -71q0 -43 20 -71.5t51 -28.5q29 0 50 29t21 71q0 41 -21 71
t-50 30zM813 275q-30 0 -51 -30t-21 -72q0 -41 21 -71t50 -30q30 0 51 30t21 71q0 42 -21 72t-50 30z" />
    <glyph glyph-name="guilsinglleft" unicode="&#x2039;" horiz-adv-x="398" 
d="M34 244l269 238l61 -67l-198 -169l198 -175l-61 -69z" />
    <glyph glyph-name="guilsinglright" unicode="&#x203a;" horiz-adv-x="399" 
d="M34 72l198 172l-198 174l61 67l270 -244l-271 -238z" />
    <glyph glyph-name="trademark" unicode="&#x2122;" horiz-adv-x="723" 
d="M43 666v54h218v-54h-80v-306h-60v306h-78zM249 360l67 367h39l92 -217q17 -38 17 -68q0 28 17 68l93 217h39l67 -367h-60l-35 206l-1 11l-1 10v38l-10 -37l-4 -15l-2 -5l-90 -214h-25l-90 214l-2 5l-5 15l-10 37v-18.5t1 -19.5l-1 -10l-2 -11l-35 -206h-59z" />
    <glyph glyph-name="fraction" unicode="&#x2215;" horiz-adv-x="197" 
d="M-117 0l368 736l63 -31l-369 -736z" />
    </font>
</defs>
</svg>
