<svg id="visual" viewBox="0 0 1920 943" width="1920" height="943" xmlns="http://www.w3.org/2000/svg" xmlns:xlink="http://www.w3.org/1999/xlink" version="1.1"><path d="M0 508L213 410L427 491L640 552L853 546L1067 526L1280 437L1493 559L1707 527L1920 482L1920 944L1707 944L1493 944L1280 944L1067 944L853 944L640 944L427 944L213 944L0 944Z" fill="#ff727d"></path><path d="M0 601L213 548L427 554L640 547L853 510L1067 620L1280 599L1493 520L1707 594L1920 580L1920 944L1707 944L1493 944L1280 944L1067 944L853 944L640 944L427 944L213 944L0 944Z" fill="#ff8b77"></path><path d="M0 639L213 606L427 663L640 609L853 615L1067 656L1280 654L1493 712L1707 639L1920 679L1920 944L1707 944L1493 944L1280 944L1067 944L853 944L640 944L427 944L213 944L0 944Z" fill="#ffa478"></path><path d="M0 768L213 718L427 719L640 701L853 762L1067 703L1280 775L1493 709L1707 725L1920 736L1920 944L1707 944L1493 944L1280 944L1067 944L853 944L640 944L427 944L213 944L0 944Z" fill="#ffbc81"></path><path d="M0 858L213 837L427 810L640 828L853 791L1067 862L1280 816L1493 792L1707 869L1920 800L1920 944L1707 944L1493 944L1280 944L1067 944L853 944L640 944L427 944L213 944L0 944Z" fill="#ffd391"></path></svg>